<?xml version="1.0" encoding="UTF-8" standalone="no"?>
<svg
   xmlns:dc="http://purl.org/dc/elements/1.1/"
   xmlns:cc="http://creativecommons.org/ns#"
   xmlns:rdf="http://www.w3.org/1999/02/22-rdf-syntax-ns#"
   xmlns:svg="http://www.w3.org/2000/svg"
   xmlns="http://www.w3.org/2000/svg"
   xmlns:xlink="http://www.w3.org/1999/xlink"
   height="109.48004"
   width="133.96207"
   xml:space="preserve"
   enable-background="new 7.7 3 347 110.6"
   viewBox="7.7 3 133.96207 109.48004"
   y="0px"
   x="0px"
   id="Layer_1"
   version="1.1"><metadata
   id="metadata4902"><rdf:RDF><cc:Work
       rdf:about=""><dc:format>image/svg+xml</dc:format><dc:type
         rdf:resource="http://purl.org/dc/dcmitype/StillImage" /><dc:title></dc:title></cc:Work></rdf:RDF></metadata><defs
   id="defs4900" /><linearGradient
   gradientTransform="matrix(0.74308096,0,0,-0.74308096,-34.967541,296.65119)"
   y2="282.5"
   x2="175.7"
   y1="282.5"
   x1="61.400002"
   gradientUnits="userSpaceOnUse"
   id="SVGID_1_"><stop
     id="stop4862"
     style="stop-color:#D0BD2B"
     offset="0.1656" /><stop
     id="stop4864"
     style="stop-color:#D0BD2B;stop-opacity:0"
     offset="1" /></linearGradient><g
   transform="translate(36.116318,3.3599437)"
   id="g6106"><path
     d="m 64.512208,34.466891 h -81.032032 c -1.034451,0 -1.896494,-0.862043 -1.896494,-1.896494 V 11.53655 c 0,-1.034452 0.862043,-1.8964937 1.896494,-1.8964937 h 81.032032 c 1.034451,0 1.896494,0.8620417 1.896494,1.8964937 v 20.861438 c 0,1.034451 -0.689635,2.068903 -1.896494,2.068903 z"
     id="path4857"
     style="fill:#003399;fill-opacity:1" /><path
     d="m 42.788726,67.052112 h -59.136141 c -1.034451,0 -2.068903,-0.862043 -2.068903,-2.068903 v -20.68903 c 0,-1.034451 0.862043,-2.068903 2.068903,-2.068903 h 59.136141 c 1.034452,0 2.068903,0.862044 2.068903,2.068903 v 20.68903 c 0,1.20686 -0.862042,2.068903 -2.068903,2.068903 z"
     id="path4859"
     style="fill:#003399;fill-opacity:1" /><path
     d="M 93.649257,99.120101 H 12.617225 c -1.034451,0 -2.068902,-0.86204 -2.068902,-2.0689 V 76.362175 c 0,-1.034451 0.862043,-2.068903 2.068902,-2.068903 h 80.859623 c 1.034452,0 2.068903,0.862043 2.068903,2.068903 v 20.689026 c 0,1.20686 -0.862042,2.0689 -1.896494,2.0689 z"
     id="path4866"
     style="fill:url(#SVGID_1_)" /></g><g
   transform="translate(5.6570828,-275.84971)"
   id="text6058"
   style="font-style:normal;font-weight:normal;font-size:42.94429779px;line-height:125%;font-family:sans-serif;letter-spacing:0px;word-spacing:0px;fill:#003399;fill-opacity:1;stroke:none;stroke-width:1px;stroke-linecap:butt;stroke-linejoin:miter;stroke-opacity:1" /><g
   transform="translate(-4.114756,-275.84971)"
   id="g6182" />
<a
   style="opacity:0;fill:#000000;fill-opacity:1;stroke:none"
   xlink:href="https://usegalaxy.be"
   id="a4895" /></svg>