<?xml version="1.0" encoding="UTF-8"?>
<svg id="VSC_Combi_Logo" xmlns="http://www.w3.org/2000/svg" version="1.1" viewBox="0 0 4112.1 1095">
  <!-- Generator: Adobe Illustrator 29.5.0, SVG Export Plug-In . SVG Version: 2.1.0 Build 15)  -->
  <defs>
    <style>
      .st0 {
        stroke: #fff;
        stroke-miterlimit: 10;
      }

      .st0, .st1 {
        fill: #f28e24;
      }

      .st2 {
        fill: #f28e24;
      }
    </style>
  </defs>
  <g>
    <g>
      <path class="st1" d="M2098.7,884c-65.4-.4-127.6-69.6-135.4-91.6-3-8.3-5-26.8-5.3-31.3-.3-8.4-1.1-17.4-1.9-27-.8-8.3-1.5-16.9-2.1-26.3-1.5-25.1-17.2-51.5-31-74.9-5.7-9.7-11.2-18.8-14.7-26.6-2.6-5.6-6.1-15.9-9.1-24.9-1.8-5.2-3.5-10.2-4.8-13.7-8.4-22.1-19.4-82.5-23.6-105.3-.8-4.4-1.4-7.5-1.6-8.7-34.1-164.5-45.9-197.6-47.8-202.2,2.6,0,15.4,4.1,40.1,68.7,6.8,17.9,16.5,48.2,21.2,69.2,3.8,16.6,8.3,34.1,13.1,52.5,1.5,5.7,3,11.5,4.4,17.3,3.4,13.2,6.3,27,9,40.4,2.1,10.1,4.2,20.5,6.6,30.5,4.4,18.6,13.4,35.1,22.2,51.2,9.2,17,18.8,34.5,22.9,54.4,4.7,23.3,18.6,35.5,31.5,44.3,7,4.8,15.4,7.2,25,7.2,27.8,0,59.2-21.2,64.4-43.7,1-4.1,1.5-13,1-17-2.1-18.2-8.9-28.4-23.6-35.2-.4-.2-.9-.4-1.5-.7-4.7-2.1-15.8-7.2-24.8-12.6-8.8-5.3-26.1-26.4-25.6-40,.2-4.6,2.3-7.9,6.4-10,1-.5,1.9-.7,3-.7,4.3,0,9.2,3.9,14.2,8,5.6,4.5,11.3,9.1,17.4,9.6.5,0,1,0,1.5,0,4.7,0,8.9-1.7,13.4-3.4,4.7-1.9,9.6-3.8,15.2-3.8s13.1,2.6,20.2,8l.2,169.7c-6.3,0-12.9-1.4-20.5-2.9-10.3-2.1-22.1-4.4-36.9-4.4s-6.8.1-10.1.4c-31,2.3-46.4,25.1-53.9,43.9-4.3,10.9-9,36.5-7.8,38.5,1.8,4.7,64.9,40.8,129.3,41v52.2h0Z"/>
      <path class="st1" d="M1822.1,252.3c1.7.5,5.1,2.4,10.4,9.6,8.3,11.4,17.9,31.1,28.4,58.6,6.8,17.9,16.5,48.2,21.2,69.1,3.8,16.6,8.3,34.1,13.1,52.5,1.5,5.7,2.9,11.5,4.4,17.2,3.4,13.2,6.3,27,9,40.4,2.1,10.1,4.2,20.5,6.6,30.5,4.4,18.6,13.5,35.2,22.2,51.3,9.2,16.9,18.8,34.4,22.9,54.3,4.7,23.4,18.7,35.7,31.7,44.6,7.1,4.8,15.6,7.3,25.3,7.3s28.3-4.9,40.9-13.4c12.7-8.6,21.4-19.7,24-30.6,1-4.2,1.5-13.2,1-17.2-2.1-18.4-9-28.7-23.9-35.7-.4-.2-.9-.4-1.5-.7-4.7-2.1-15.8-7.2-24.8-12.6-8.7-5.3-25.8-26.1-25.3-39.6.2-4.4,2.2-7.6,6.1-9.6.9-.4,1.8-.7,2.8-.7,4.2,0,8.9,3.8,13.9,7.9,5.6,4.5,11.4,9.2,17.7,9.7.5,0,1,0,1.6,0,4.8,0,9-1.7,13.6-3.5,4.7-1.8,9.5-3.7,15.1-3.7s12.7,2.5,19.7,7.7l.2,168.9c-6.1-.1-12.5-1.4-19.9-2.9-10.4-2.1-22.1-4.4-37-4.4s-6.8.1-10.2.4c-31.3,2.3-46.8,25.3-54.3,44.2-4.2,10.5-9,35.8-7.9,38.8h0c1.1,2.7,18.8,13.3,41.1,22.4,21.2,8.6,53.5,18.8,88.2,19v51.2c-65-.7-126.6-69.4-134.4-91.2-2.9-8.1-4.9-26.8-5.2-31.1-.3-8.5-1.1-17.5-1.9-27-.8-8.3-1.5-16.8-2.1-26.3-1.5-25.2-17.2-51.7-31.1-75.1-5.7-9.7-11.1-18.8-14.7-26.5-2.6-5.6-6.1-15.9-9.1-24.9-1.8-5.2-3.5-10.2-4.8-13.7-8.4-22.1-19.4-82.5-23.6-105.2-.8-4.5-1.4-7.5-1.6-8.8-32.7-158.1-44.8-194.4-47.5-201.4M1821.2,251.1c-.4,0-.6,0-.6,0,0,0,10.4,20.6,48.1,202.7,1.6,7.5,15.2,87.7,25.2,114.1,3.6,9.5,9.8,29.7,13.9,38.6,12,26.1,43.6,65.6,45.7,101.3,1.2,20.6,3.6,37.7,4,53.3.3,4.6,2.3,23.2,5.3,31.4,7.7,21.8,70.1,91.9,136.3,91.9v-53.2c-65.8,0-127.8-36.9-129.3-40.8-.9-1.7,3.4-26.9,7.9-38.1,8.6-21.7,24.9-41.5,53.5-43.6,3.5-.2,6.9-.4,10.1-.4,26,0,42.9,7.3,57.9,7.3l-.2-170.4c-8.1-6.2-14.8-8.2-20.7-8.2-11,0-19.2,7.2-28.7,7.2s-1,0-1.5,0c-11.5-.9-22.4-17.6-31.7-17.6-1.1,0-2.2.2-3.2.8-19,9.7,7.6,43.9,19.2,50.9,10.3,6.2,23.3,11.9,26.4,13.3,15.3,7.2,21.4,18,23.3,34.9.5,3.9,0,12.7-.9,16.8-5.3,22.4-36.3,43.3-63.9,43.3s-17.4-2.2-24.7-7.1c-14-9.6-26.8-22-31.3-44-8-38.9-36.1-67.5-45.1-105.6-5.5-23.1-9.5-47.6-15.6-70.8-6.1-24.1-12.5-47.9-17.5-69.8-4.6-20.3-14.3-50.7-21.3-69.2-24.9-64.9-37.8-69-40.7-69h0Z"/>
    </g>
    <path class="st0" d="M1813.2,352.5c-2.4,39.8-64,94.3-83.3,129.2-9.5,17.2-21,46.6-24,63.7-8.2,47.5,2.2,77,13.8,104.8,20.4,48.9-2.8,66.8,13.2,56.9,19.7-16.1,16.7-53.6,15.3-77-1.2-19-2.4-40.6.4-63.3,5.5-42.4,31.1-87.9,53.1-119.7,26-37.9,16.6-77.2,11.6-94.7"/>
    <path class="st0" d="M1825.7,465.6s6.6,31.5-21.3,112.7c-72.8,212.2,66.2,232.3,105.8,282.1,0,0,15.3-21.6-47.7-90.8-23-25.3-43.8-81-25.7-160.5,26.1-115.2-11.1-143.5-11.1-143.5"/>
    <path class="st0" d="M1688,326.5c-3.3-12.5-4.3-23.7-3.6-33.8,3.4-49.9,48.6-70,59.9-77.5,0,0,20.4-13.9,23-28,0,0,20.8,52.5-26.9,82.5-24.3,15.3-40.7,33.2-52.3,56.7"/>
    <path class="st0" d="M1802.2,278.3c2.6,5.1,21.3,32.5-55.5,95.9-76.7,63.3-52.8,108.6-52.8,108.6,0,0-81.9-45.5,12.4-124.2,94.3-78.6,75-94.6,75-94.6,0,0,13.5-.6,20.9,14.2"/>
    <g>
      <path class="st1" d="M2012.2,391.9c-4.9,0-8.7-4.8-9.8-9.3-1.2-4.8.4-8.8,4.1-10.9l.4-.2-.2-.4c-3.6-9.2-15.5-10.8-29.2-12.6-7.1-1-15.2-2-23-4.3-17.9-5.2-28.1-21.6-36.3-34.7-5.1-8.2-9.3-14.9-14.1-16.9,14.7-3.2,28.2-4.8,40.3-4.8,28.4,0,49,8.8,61.2,26.2,15.7,22.3,13.6,53.2,8.6,67.6-.6.2-1.3.2-1.9.2h0ZM1967.7,306.5c-2,0-3.8.2-5.4.7-4.5,1.4-7.7,4.9-10.5,8-1,1-1.9,2-2.8,2.9-1.3.8-2.4.9-3.3.9-1.1,0-2.2,0-2.9,2-1.9,6.3-.9,12.2,2.7,17.2,4.8,6.5,14,10.7,23.5,10.7s13.2-2.4,17-6.8c3.7-4.2,5.1-10.2,4.2-17.4v-.4c0,0-.5,0-.5,0-.2,0-.3,0-.4,0-3.6,0-8.3,1.7-12.8,3.4-4.2,1.6-8.6,3.2-11.8,3.2s-5.1-1.9-5.2-6.1c0-5.3,4.4-5.4,9.2-5.5,2.8,0,5.4,0,7.1-1.3,1.7-1.5,2.9-5.8,2.3-8.1-.3-1.3-1-1.7-1.6-1.8-2.5-1-5.7-1.6-8.7-1.6Z"/>
      <path class="st1" d="M1944.3,298.3c28.2,0,48.7,8.7,60.8,26,8.9,12.7,11.4,27.4,12,37.6.6,12.4-1.3,23.2-3.4,29.3-.5.1-1,.2-1.5.2-3.5,0-7.9-3.1-9.4-8.9-1.1-4.5.3-8.4,3.9-10.3l.8-.4-.3-.8c-3.7-9.4-15.7-11-29.6-12.9-7.1-1-15.2-2-22.9-4.3-17.7-5.2-27.9-21.4-36.1-34.5-4.7-7.5-8.7-13.8-13.1-16.4,14.1-3,27.2-4.5,38.8-4.5M1948.8,317.7c-1.2.8-2.2.8-3,.8-1.2,0-2.5,0-3.4,2.3h0s0,0,0,0c-1.9,6.4-.9,12.5,2.8,17.6,4.9,6.6,14.3,10.9,23.9,10.9s13.5-2.5,17.4-7c1.8-2.1,3.1-4.6,3.9-7.5.8-3.1.9-6.5.4-10.3v-.8c-.1,0-.9,0-.9,0-.2,0-.3,0-.5,0-3.7,0-8.4,1.8-12.9,3.5-4.2,1.6-8.5,3.2-11.7,3.2s-4.6-.7-4.7-5.6c0-4.5,3.3-4.9,8.7-5,2.9,0,5.6,0,7.3-1.4h0s0,0,0,0c1.8-1.6,3.1-6.1,2.5-8.6-.4-1.5-1.3-2-1.9-2.2-2.6-1-5.9-1.6-8.9-1.6s-3.9.2-5.5.8c-4.6,1.5-7.8,5-10.7,8.2-.9,1-1.8,2-2.7,2.8M1944.3,297.3c-12.1,0-26.2,1.6-42.3,5.3,13.3,1.7,21.7,43.2,52.4,52.2,22.6,6.6,46.6,3,51.9,16.6-9.6,5.1-3.3,21.1,5.9,21.1s1.5-.1,2.3-.3c7.5-21.1,11.7-94.8-70.2-94.8h0ZM1969,348.4c-14.6,0-30.7-10.5-25.7-27.1,1.1-3,2.7-.6,6.1-2.7,3.6-3.4,7.3-9,13.1-10.8,1.6-.5,3.4-.7,5.2-.7,3,0,6.2.6,8.6,1.5,2.6.6,1,7.3-.9,9-4.2,3.1-16.4-2-16.4,7.2.2,4.9,2.4,6.6,5.7,6.6,6.7,0,17.6-6.6,24.6-6.6s.3,0,.4,0c2.3,16.5-8.7,23.6-20.7,23.6h0Z"/>
    </g>
  </g>
  <g>
    <rect class="st1" x="2265.1" y="26.9" width="4.1" height="1041.1" transform="translate(-55.6 758.7) rotate(-18.8)"/>
    <path class="st1" d="M2101.1,54.6l334.9,984.7-2.9,1L2098.2,55.6l2.9-1M2101.7,53.4l-4.8,1.6,335.6,986.6,4.8-1.6L2101.7,53.4h0Z"/>
  </g>
  <g>
    <path class="st1" d="M2581.7,306.4l-75.8,220h-45.1l-75.8-220h40.8l57.6,167.1,57.6-167.1h40.8Z"/>
    <path class="st1" d="M2608.1,288.3l33.6-3.3h4.9v238.1h-38.5v-234.9Z"/>
    <path class="st1" d="M2818.5,526.4c-6.4,0-12.7-1-19.1-3.8-6.4-2.6-12.8-7.1-19.2-14.1-6.7,5.1-12.7,9.5-19.7,12.7-7.2,3.3-15.3,5.3-26.3,5.3s-16.6-1.1-25-4.1-16.1-7.9-21.9-16c-5.8-8-9.4-19.2-9.4-34.4s3.6-27,12.8-35c9.2-8,24.2-12.5,47-12.5s19.9,0,35,1.3v-8.5c0-11.8-3.8-20.1-9.9-25-6.1-4.9-14.3-6.9-23.5-6.9s-15.3,1.3-23.2,3.5c-7.9,2.1-15.8,4.9-22.5,8.2l-9.1-33.5c17.9-8.5,40.8-14.5,62.3-14.5s32.7,3.6,44.6,12.5c11.7,8.9,19.1,22.9,19.1,43.8v63.5c0,8.1,2.6,13.8,7.2,17.8,4.4,4,10.7,6.2,18.1,7.7l-17.4,32.2ZM2772.6,454c-17.9,0-31.9-.3-41.4,2-9.5,2.3-14.8,7.2-14.8,17.3s10,21.7,24,21.7,12.8-1,19.7-5.3c6.9-4.3,12.5-11.7,12.5-25.3v-10.4Z"/>
    <path class="st1" d="M2986.4,526.4c-6.4,0-12.6-1-19.1-3.8-6.4-2.6-12.8-7.1-19.2-14.1-6.7,5.1-12.6,9.5-19.7,12.7-7.2,3.3-15.3,5.3-26.3,5.3s-16.6-1.1-25-4.1-16.1-7.9-21.9-16c-5.8-8-9.4-19.2-9.4-34.4s3.6-27,12.8-35c9.2-8,24.2-12.5,47-12.5s19.9,0,35,1.3v-8.5c0-11.8-3.8-20.1-9.9-25-6.1-4.9-14.3-6.9-23.5-6.9s-15.3,1.3-23.2,3.5c-7.9,2.1-15.8,4.9-22.5,8.2l-9.1-33.5c17.9-8.5,40.8-14.5,62.3-14.5s32.7,3.6,44.6,12.5c11.7,8.9,19.1,22.9,19.1,43.8v63.5c0,8.1,2.6,13.8,7.2,17.8,4.4,4,10.7,6.2,18.1,7.7l-17.4,32.2ZM2940.5,454c-17.9,0-31.9-.3-41.4,2-9.5,2.3-14.8,7.2-14.8,17.3s10,21.7,24,21.7,12.8-1,19.7-5.3c6.9-4.3,12.5-11.7,12.5-25.3v-10.4h0Z"/>
    <path class="st1" d="M3026.9,352.4h32.6l3.8,13.3c15.8-10.5,35.4-16.6,54.4-16.6s31.9,4.4,43.2,14.3,18.8,25.2,18.8,46.4v113.3h-38.5v-102c0-12.7-4.6-21.5-11.7-27.1s-16.9-7.9-27-7.9-26.6,4-37.2,10.5v126.5h-38.5v-170.7h0Z"/>
    <path class="st1" d="M3363.9,523.1h-29.1l-6.9-12.8c-13.2,9.9-27,16.1-45.9,16.1s-42.8-9.9-54.8-25c-12-15.1-17.9-35.5-17.9-56.6,0-32.2,9.7-56.2,25.8-72.2,16.1-15.8,38.8-23.5,65.1-23.5s16.1.5,25.2,1.6v-62.5l32.6-3.3h5.9v238.1h0ZM3325.5,388.6c-9.7-2.5-19.6-3.6-27.3-3.6-14.6,0-27,4.3-35.5,13.2-8.5,8.9-13.5,22-13.5,39.8s3.6,25.7,10.5,35.4c6.9,9.7,17.1,16.1,30.8,16.1s24.7-4.1,35-10.5v-90.3Z"/>
    <path class="st1" d="M3531.7,478.9v37.3c-7.7,3.8-15.9,6.1-24.3,7.7-8.6,1.6-16.9,2.5-24.2,2.5-23.7,0-45.6-7.4-61.7-22-16.1-14.6-26.3-37-26.3-66.6s9.5-50.8,24-66c14.3-15,33.5-22.7,52.8-22.7s15.1.7,25.2,4.1c10.1,3.5,21.1,10,29.3,21.4,8.2,11.3,14,28.1,14,51.8v25.7h-103.6c3.1,13.8,10.2,23.2,19.4,29.1,9.1,5.9,20.1,8.4,31.1,8.4s29.8-4.1,42.9-11.2l1.5.5ZM3505.3,421.6c-1.2-12.5-5.3-21.4-11.2-27.3-5.9-5.8-13.5-8.2-20.9-8.2s-15.9,2.6-22.5,8.4c-6.7,5.9-12.2,14.8-14.3,27.1h68.9Z"/>
    <path class="st1" d="M3670.2,394.8c-9.7-5.9-19.2-8.5-28.9-8.5s-24,4.6-34.4,12.5v124.3h-38.5v-170.7h32.6l3.9,14c11.8-10,26.3-17.3,43.4-17.3s11,.3,17.3,1.5c6.2,1.2,12.3,2.8,16.8,5.3l-12.2,39Z"/>
    <path class="st1" d="M3817.3,478.9v37.3c-7.7,3.8-15.9,6.1-24.3,7.7-8.6,1.6-16.9,2.5-24.2,2.5-23.7,0-45.6-7.4-61.7-22-16.1-14.6-26.3-37-26.3-66.6s9.5-50.8,24-66c14.3-15,33.5-22.7,52.8-22.7s15.1.7,25.2,4.1c10.1,3.5,21.1,10,29.3,21.4,8.2,11.3,14,28.1,14,51.8v25.7h-103.6c3.1,13.8,10.2,23.2,19.4,29.1,9.1,5.9,20.1,8.4,31.1,8.4s29.8-4.1,42.9-11.2l1.5.5ZM3790.9,421.6c-1.2-12.5-5.3-21.4-11.2-27.3-5.9-5.8-13.5-8.2-20.9-8.2s-15.9,2.6-22.5,8.4c-6.7,5.9-12.2,14.8-14.3,27.1h68.9Z"/>
    <path class="st1" d="M3854,352.4h32.6l3.8,13.3c15.8-10.5,35.4-16.6,54.4-16.6s31.9,4.4,43.2,14.3,18.8,25.2,18.8,46.4v113.3h-38.5v-102c0-12.7-4.6-21.5-11.7-27.1s-16.9-7.9-27-7.9-26.6,4-37.2,10.5v126.5h-38.5v-170.7h0Z"/>
  </g>
  <g>
    <path class="st1" d="M2443.5,634.1c0-5.2,4.1-9.3,9.3-9.3s9.4,4.1,9.4,9.3-4.4,9.2-9.4,9.2c-4.9,0-9.3-4.4-9.3-9.2ZM2459.5,658.7v90.4h-13.4v-90.4h13.4Z"/>
    <path class="st1" d="M2483.9,734.1l.5-.4c5.7,2.3,14.3,4.5,20.8,4.5,9.5,0,22.7-4.3,22.7-14.6s-2.7-7.9-6.8-10.5c-5.4-3.4-14.8-6.1-23.1-10.5-9.5-5-13.8-12.4-13.8-21.8,0-17.2,14.3-23.8,30.7-23.8s13.1,1,18.4,2.5v12.2l-.5.3c-4.8-1.3-13.7-2.9-19.9-2.9s-15.3,2.3-15.3,10.5,2.9,8.4,7.1,11c5.7,3.7,16.4,6.9,25.2,11.3,9.2,4.8,11.7,10.3,11.7,19.9s-4.8,17.1-11.8,21.8c-7.1,4.8-16.3,7.1-25.2,7.1s-14.6-1.6-20.5-4.1v-12.7h0Z"/>
    <path class="st1" d="M2605,734.1l.5-.4c5.7,2.3,14.3,4.5,20.8,4.5,9.5,0,22.7-4.3,22.7-14.6s-2.7-7.9-6.8-10.5c-5.4-3.4-14.8-6.1-23.1-10.5-9.5-5-13.8-12.4-13.8-21.8,0-17.2,14.3-23.8,30.7-23.8s13.1,1,18.4,2.5v12.2l-.5.3c-4.8-1.3-13.7-2.9-19.9-2.9s-15.3,2.3-15.3,10.5,2.9,8.4,7.1,11c5.7,3.7,16.4,6.9,25.2,11.3,9.2,4.8,11.7,10.3,11.7,19.9s-4.8,17.1-11.8,21.8c-7.1,4.8-16.3,7.1-25.2,7.1s-14.6-1.6-20.5-4.1v-12.7h0Z"/>
    <path class="st1" d="M2745.5,749.1l-2.7-8.6c-3.7,2.4-8.4,5-13.2,7-4.9,2-9.9,3.3-14.2,3.3-8.6,0-16.5-2.3-22.4-7.7-5.9-5.4-9.6-13.8-9.6-26.6v-57.8h13.5v57c0,8.7,2.3,14.4,5.8,17.8,3.5,3.5,8.4,4.8,13.9,4.8s8.4-1,12.4-2.8c4.1-1.7,7.9-3.7,11.4-5.8v-71h13.5v90.4h-8.5Z"/>
    <path class="st1" d="M2790.9,658.7l2.4,7.8c6.9-5.9,14.9-9.6,25.2-9.6s21.6,5,28.4,13.2c6.8,8.4,10.6,19.9,10.6,33.1s-3.6,24.6-11.1,33.3c-7.5,8.7-18.9,14.2-34.5,14.2s-11.5-.7-16.7-1.8v40h-13.5v-130.2h9ZM2795.4,679.3v55.7c5.9,2.4,11.8,3.5,17.7,3.5,9.1,0,16.8-3.4,22.4-9.7,5.5-6.2,8.7-15.2,8.7-26.6s-2-17.1-6.4-23-11.2-9.7-20.9-9.7c-9.1,0-16.8,3.1-21.4,9.7Z"/>
    <path class="st1" d="M2941.2,707.3h-56.3c1.2,18.9,12.6,31,29.9,31s16.1-2.3,24.4-6.4h.3v12.5c-9.4,4.6-17.6,6.4-25.9,6.4-26.2,0-42-18.5-42-48s12.2-45.8,38.8-45.8,30.9,17.3,30.9,38.1v12.2h0ZM2885.5,695.1h42.5c-.2-14.1-3.8-25.6-17.9-25.6-14.2,0-22.4,11.1-24.6,25.6Z"/>
    <path class="st1" d="M2970.7,658.7l3.1,10.3c6.7-7.8,13.8-12,22.2-12s4.9.3,7.6.8,5.3,1.4,7.4,2.3l-4.7,12.1c-3.4-1.7-8.7-2.8-12.4-2.8-7.9,0-14.1,5-18.7,12.1v67.5h-13.5v-90.4h9.1Z"/>
    <path class="st1" d="M3083.6,732.5v11.8c-9.3,4.6-17.5,6.4-25.9,6.4s-21.3-3.5-29.1-11.1c-7.8-7.7-12.9-19.6-12.9-36.4s4.9-28.2,12.5-35.6,18.2-10.7,29.4-10.7,16.5,1.8,25.9,6.4v11.8l-.6.4c-8.1-4.1-16.1-6.2-23.9-6.2s-15.7,2.3-21.1,7.5c-5.5,5.3-8.9,13.7-8.9,25.8s3.4,21.1,8.9,26.9,12.9,8.6,21.1,8.6,15.8-2.1,23.9-6.2l.6.4Z"/>
    <path class="st1" d="M3095.4,704.2c0-13.1,4.4-24.9,11.8-33.4,7.3-8.5,17.8-13.8,30-13.8s22.7,5.3,29.9,13.8c7.1,8.4,11.2,20.1,11.2,33s-4.3,24.8-11.6,33.3c-7.4,8.5-17.9,13.8-30.2,13.8s-22.6-5.3-29.8-13.8c-7.1-8.4-11.3-20-11.3-32.9ZM3108.9,703.5c0,9.4,2.4,18.2,7.1,24.5,4.8,6.3,11.8,10.4,21.2,10.4s15.9-3.7,20.5-9.7c4.6-6,7-14.5,7-24.2s-2.4-18.3-7-24.6c-4.6-6.3-11.6-10.3-21-10.3s-16,3.7-20.7,9.8c-4.7,6.1-7.2,14.7-7.2,24.2Z"/>
    <path class="st1" d="M3250.6,749.1v-57.1c0-8.4-1.7-14-4.7-17.6-3-3.5-7.1-5-11.9-5-7.6,0-14.7,3.4-21.4,8.5v71.1h-13.5v-90.4h8.5l3.1,8.3c5.5-3.6,10-6,14.1-7.7,4.1-1.7,7.8-2.3,11.7-2.3,7.6,0,15.1,2.8,20.6,9.8,3.7-2.3,8.3-4.8,13-6.6s9.4-3.1,13.6-3.1c8.6,0,16.5,2.2,22.5,7.6,5.8,5.4,9.5,13.9,9.5,26.7v57.9h-13.5v-57.1c0-8.7-2.3-14.4-5.7-17.8-3.6-3.5-8.5-4.8-14-4.8s-14.1,3.2-20.4,6.7c1.3,4.2,2.1,9.1,2.1,15.1v57.9h-13.4Z"/>
    <path class="st1" d="M3351.6,658.7l2.4,7.8c6.9-5.9,14.9-9.6,25.2-9.6s21.6,5,28.4,13.2c6.8,8.4,10.6,19.9,10.6,33.1s-3.6,24.6-11.1,33.3c-7.5,8.7-18.9,14.2-34.5,14.2s-11.5-.7-16.7-1.8v40h-13.5v-130.2h9ZM3356.1,679.3v55.7c5.9,2.4,11.8,3.5,17.7,3.5,9.1,0,16.8-3.4,22.4-9.7,5.5-6.2,8.7-15.2,8.7-26.6s-2-17.1-6.4-23-11.2-9.7-20.9-9.7c-9.1,0-16.8,3.1-21.4,9.7Z"/>
    <path class="st1" d="M3500.4,749.1l-2.7-8.6c-3.7,2.4-8.4,5-13.2,7-4.9,2-9.9,3.3-14.2,3.3-8.6,0-16.5-2.3-22.4-7.7-5.9-5.4-9.6-13.8-9.6-26.6v-57.8h13.5v57c0,8.7,2.3,14.4,5.8,17.8,3.5,3.5,8.4,4.8,13.9,4.8s8.4-1,12.4-2.8c4.1-1.7,7.9-3.7,11.4-5.8v-71h13.5v90.4h-8.5Z"/>
    <path class="st1" d="M3536.3,658.7v-16.2l12.6-2.3h.9v18.5h25.1v12.5h-25.1v44.4c0,8.3,1.8,13.8,4.7,17.5,2.9,3.7,7,5.2,11.6,5.2s11.1-2,17-5.4l3.7,12.4c-7.7,3.5-15.2,5.5-22.3,5.5s-14.8-2.4-19.9-8.1c-5.1-5.6-8.2-14.5-8.2-27.1v-44.4h-10v-12.5h10Z"/>
    <path class="st1" d="M3601.5,634.1c0-5.2,4.1-9.3,9.3-9.3s9.4,4.1,9.4,9.3-4.4,9.2-9.4,9.2c-4.9,0-9.3-4.4-9.3-9.2ZM3617.5,658.7v90.4h-13.4v-90.4h13.4Z"/>
    <path class="st1" d="M3657.1,658.7l2.5,8.4c3.7-2.4,8.3-5,13.1-6.9,4.8-1.9,9.8-3.2,14-3.2,8.6,0,16.5,2.2,22.5,7.6,5.8,5.4,9.5,13.9,9.5,26.7v57.8h-13.5v-57c0-8.7-2.3-14.4-5.7-17.8-3.6-3.5-8.5-4.8-14-4.8s-8.4,1.1-12.5,2.8c-4.1,1.7-7.8,3.8-11.3,5.9v71h-13.5v-90.4h9Z"/>
    <path class="st1" d="M3764.2,730.2h17.1c12.4,0,21.6,2.9,27.6,7.6,5.9,4.7,8.9,11.1,8.9,17.8,0,9.8-6,18.6-14.8,24.9-8.8,6.3-20.5,10.2-31.7,10.2s-18.7-3.2-24.5-8.4c-5.8-5.1-9-12.4-9-20.4s3.9-16,10.8-23c-2.4-1.4-4.3-3.7-5.5-6.4-1.2-2.7-1.9-5.6-1.9-8.1,0-4.9,2.3-10.4,6.5-15.8-2.4-2.5-4.4-6-5.6-9.8-1.2-3.7-1.9-7.8-1.9-11.7,0-8.6,3.4-16.1,9.3-21.5,5.9-5.4,14.3-8.6,24.1-8.6s12.6,1.5,17.5,4.2c3.8-2.9,8.2-5.2,12.2-6.8,4-1.6,7.8-2.3,10.9-2.3l4,11.4c-4.8.8-11.1,2.8-17,6.5,3.4,4.9,5.2,10.5,5.2,16.8s-3.5,16.5-9.4,22.4c-6,5.8-14.4,9.5-24.3,9.5s-11.9-1.6-16.7-3.9c-2,2.5-3.1,5-3.1,7.4,0,4.5,3.9,8.1,11.1,8.1ZM3769.2,741.8h-10.2c-4.9,5.6-8,12.6-8,18.9s1.5,9.9,5,13.1c3.5,3.2,9,5.1,17,5.1s16.8-3,22.4-7.2c5.5-4.2,8.6-9.8,8.6-15.2s-3.9-10.4-10.2-12.5c-6.3-2-15-2.3-24.5-2.3ZM3773.3,669c-6.7,0-11.8,2.5-15.3,6.1-3.5,3.6-5.2,8.3-5.2,12.8s1.8,9.2,5.3,12.8,8.6,6,15.5,6,11.8-2.4,15.1-6c3.4-3.5,5.1-8.1,5.1-12.6s-1.7-9.3-5.1-13c-3.5-3.7-8.6-6.1-15.3-6.1Z"/>
  </g>
  <g>
    <path class="st2" d="M853,306.9l34.5,100.4,34.5-100.4h13.9l-39.5,114.7h-18l-39.4-114.7h13.9Z"/>
    <path class="st2" d="M965.6,306.9v102.2h53.9v12.5h-67.4v-114.7h13.5Z"/>
    <path class="st2" d="M1051.4,394.9l-9.2,26.7h-13.9l39.4-114.7h18l39.5,114.7h-13.9l-9.2-26.7h-50.7ZM1097.8,382.4l-21.1-61-21.1,61h42.1Z"/>
    <path class="st2" d="M1152.7,394.9l-9.2,26.7h-13.9l39.4-114.7h18l39.5,114.7h-13.9l-9.2-26.7h-50.7ZM1199.1,382.4l-21.1-61-21.1,61h42.1Z"/>
    <path class="st2" d="M1319.8,306.9h18.4v114.7h-13.9v-96l-32.4,62.9h-3.1l-33.1-63.7v96.8h-13.1v-114.7h18.2l29.3,57.8h.3l29.3-57.8Z"/>
    <path class="st2" d="M1359.9,406.2h.3c6.1,2.7,17.3,4.7,25.2,4.7,13.2,0,26.3-4.8,26.3-18.9s-3.6-12.2-10.1-16.3c-5.5-3.5-27.3-13.8-32-17.7-5.6-4.4-9.1-11.6-9.1-21.9,0-21.6,15.4-30.9,35.5-30.9s13.9,1.2,20.2,3v11.5l-.3.2c-5.2-1-12.6-2.4-19.9-2.4-12.7,0-23.2,4.1-23.2,17.5s1.8,8.8,5,11.6c5.7,5,23.5,12.3,32.1,18.5,9.4,6.7,14.4,11.1,14.4,23.9,0,22.8-19.1,34.4-40.9,34.4s-16.4-1.7-23.4-5v-12.2h0Z"/>
    <path class="st2" d="M169.2,474.3l-.3,18.4c-5.3-1.1-13.2-1.9-20.9-1.9s-12.3.6-16,2.3-5.8,4.2-5.8,8.3,2.5,7.7,6.3,10.6c3.8,3,9,5.6,14,7.7,2.5,1.1,5,2.1,7.3,3,4.8,1.8,9.4,3.8,14.7,7.5,5.3,3.8,9.4,8.8,11.8,14.9,1.1,3,1.7,6.5,1.7,10.1,0,11.8-6.6,20.4-16,26.1-9.4,5.8-21.7,8.6-32.9,8.6s-17.9-1.7-25.6-5v-19.1h.3c3.2,1.2,7.6,2.4,12.3,3.4,4.7,1,9.8,1.7,14.8,1.7,7.9,0,14.5-1.7,19.1-4.2,4.5-2.6,7.1-6.3,7.1-10.5s-2.5-7.8-6.3-10.7c-3.8-3-8.8-5.4-13.8-7.5-2.5-1-5-2-7.5-3-4.9-1.8-9.3-3.8-14.5-7.4s-9.5-8.5-11.9-14.7c-1.3-3.1-1.9-6.6-1.9-10.4,0-11,5.7-18.7,13.8-23.6,8.2-4.9,19-7,29.5-7,7.4,0,14.4,1,20.6,2.7Z"/>
    <path class="st2" d="M214.8,473.3v64.6c0,13.3,2.7,21.4,7.3,26.1,4.6,4.7,11.5,6.2,19.6,6.2s15-1.5,19.6-6.2c4.6-4.7,7.3-12.8,7.3-26.1v-64.6h20.4v70.4c0,13.5-3.1,23-8,29.9-5,6.9-11.5,10.8-18.4,13.1-7,2.3-14,3-19.9,3h-1.9c-5.9,0-13-.6-19.8-3-7-2.3-13.5-6.3-18.4-13.1-5-6.9-8.1-16.5-8.1-29.9v-70.4h20.3Z"/>
    <path class="st2" d="M308.9,473.3h32.9c7.6,0,15.8.8,23.4,3.1s14.5,6.1,19.7,11.9c5.1,5.9,8.3,13.8,8.3,24.5s-6.3,23.2-15.8,29.3c-9.6,6.2-22.4,8.9-35.5,8.9h-12.5v36.9h-20.4v-114.7h0ZM329.3,531.5h12.9c11.8,0,19.5-1.9,24.2-5.4,4.7-3.4,6.4-8.2,6.4-13.8s-1.6-10.6-6.4-14.1c-4.7-3.4-12.4-5.3-24.2-5.3h-12.9v38.6h0Z"/>
    <path class="st2" d="M477,473.3v19.6h-47.8v28.3h46.5v19.6h-46.5v27.7h47.8v19.6h-68.1v-114.7h68.1Z"/>
    <path class="st2" d="M495.3,473.3h32.9c7.6,0,15.8,1,23.4,3.4s14.5,6.5,19.7,12.6,8.3,14.3,8.3,25.3-2,14.5-5.5,19.8c-3.5,5.3-8.4,9.5-14.2,12.5,2.4,5.2,7,11.3,12.3,16.5,5.3,5.3,11.4,9.8,16.6,11.7v1l-9,13.6c-5.7,0-11.5-2.5-16.9-6.4-5.4-3.8-10.4-9-14.4-14.5-4-5.5-7-11.1-8.7-15.8-3.7.6-7.7.7-11.6.7h-12.5v34.3h-20.4v-114.7h0ZM515.7,534.1h12.9c11.8,0,19.5-2,24.2-5.5s6.4-8.5,6.4-14.6-1.6-11.5-6.4-15.2c-4.7-3.8-12.4-5.9-24.2-5.9h-12.9v41.3Z"/>
    <path class="st2" d="M685.3,566.9v19.3c-8.4,2.3-19.4,3.6-28.7,3.6-20.2,0-35.4-6.3-45.5-17.1-10.2-10.8-15.3-26-15.3-43.9.4-15.9,5.3-30.2,15.4-40.6,10-10.4,25.1-16.7,45.5-16.7s20.2,1.2,28.6,3.6v19.3l-.7.4c-8.3-2.4-17.8-3.6-25.1-3.6-15.1,0-25.8,5-32.6,12.3-6.9,7.4-10,17.2-10,27.2s3,19.8,10,27.1c6.9,7.4,17.5,12.3,32.5,12.3s16.9-1.1,25.2-3.6l.7.3Z"/>
    <path class="st2" d="M695.7,530.6c0-16.7,5.7-31.4,15.4-42,9.8-10.6,23.6-17,40-17s29.9,6.4,39.4,17c9.4,10.6,14.8,25.3,14.8,42s-5.6,31.4-15.3,42c-9.8,10.6-23.5,17.1-39.9,17.1s-30-6.5-39.4-17.1c-9.5-10.6-15-25.3-15-42ZM716.1,529.7c0,11.5,3,21.7,9,28.9,5.8,7.2,14.5,11.6,26,11.6s19.6-4,25.2-11c5.7-6.9,8.6-16.5,8.6-27.8s-4.4-23.3-11-30.1c-6.6-6.8-15.4-10.3-24.1-10.3s-17,3.3-23.2,9.8c-6.3,6.5-10.5,16.2-10.5,28.8Z"/>
    <path class="st2" d="M898.6,588v-71.1l-18.5,34.8h-19.3l-18.5-34.8v71.1h-20.4v-114.7h20.4l28.2,53.2,28.2-53.2h20.4v114.7h-20.4Z"/>
    <path class="st2" d="M941.6,473.3h32.9c7.6,0,15.8.8,23.4,3.1s14.5,6.1,19.7,11.9c5.1,5.9,8.3,13.8,8.3,24.5s-6.3,23.2-15.8,29.3c-9.6,6.2-22.4,8.9-35.5,8.9h-12.5v36.9h-20.4v-114.7h0ZM962,531.5h12.9c11.8,0,19.5-1.9,24.2-5.4,4.7-3.4,6.3-8.2,6.3-13.8s-1.7-10.6-6.3-14.1c-4.7-3.4-12.4-5.3-24.2-5.3h-12.9v38.6Z"/>
    <path class="st2" d="M1059.3,473.3v64.6c0,13.3,2.7,21.4,7.3,26.1,4.6,4.7,11.5,6.2,19.6,6.2s15-1.5,19.6-6.2c4.6-4.7,7.3-12.8,7.3-26.1v-64.6h20.4v70.4c0,13.5-3.1,23-8,29.9-5,6.9-11.5,10.8-18.4,13.1-7,2.3-14,3-19.9,3h-1.9c-5.9,0-13-.6-19.8-3-7-2.3-13.5-6.3-18.4-13.1-5-6.9-8.1-16.5-8.1-29.9v-70.4h20.3Z"/>
    <path class="st2" d="M1235.6,473.3v19.6h-34.8v95.1h-20.4v-95.1h-34.8v-19.6h90Z"/>
    <path class="st2" d="M1318.6,473.3v19.6h-47.8v28.3h46.5v19.6h-46.5v27.7h47.8v19.6h-68.2v-114.7h68.2Z"/>
    <path class="st2" d="M1336.9,473.3h32.9c7.6,0,15.8,1,23.4,3.4s14.5,6.5,19.7,12.6,8.3,14.3,8.3,25.3-2,14.5-5.5,19.8c-3.5,5.3-8.4,9.5-14.2,12.5,2.3,5.2,7,11.3,12.3,16.5,5.3,5.3,11.4,9.8,16.6,11.7v1l-9.1,13.6c-5.7,0-11.5-2.5-16.9-6.4-5.4-3.8-10.4-9-14.4-14.5-4-5.5-7.1-11.1-8.7-15.8-3.7.6-7.7.7-11.6.7h-12.5v34.3h-20.4v-114.7h0ZM1357.2,534.1h12.9c11.8,0,19.5-2,24.2-5.5s6.3-8.5,6.3-14.6-1.7-11.5-6.3-15.2c-4.7-3.8-12.4-5.9-24.2-5.9h-12.9v41.3Z"/>
    <path class="st2" d="M798.5,733.2v19.3c-8.4,2.3-19.4,3.6-28.7,3.6-20.2,0-35.4-6.3-45.5-17.1-10.2-10.8-15.3-26-15.3-43.9.3-15.9,5.3-30.2,15.4-40.6,10-10.3,25.1-16.7,45.5-16.7s20.2,1.2,28.6,3.6v19.3l-.7.3c-8.3-2.4-17.8-3.6-25.1-3.6-15.1,0-25.8,5-32.6,12.3-6.9,7.4-10,17.2-10,27.2s3,19.8,10,27.1c6.9,7.4,17.5,12.3,32.5,12.3s16.9-1.1,25.2-3.6l.7.3Z"/>
    <path class="st2" d="M883.2,639.7v19.6h-47.8v28.3h46.5v19.6h-46.5v27.7h47.8v19.6h-68.2v-114.7h68.2Z"/>
    <path class="st2" d="M921.9,754.4h-20.4v-114.7h20.4l47.7,76.3v-76.3h20.4v114.7h-20.4l-47.7-76.2v76.2Z"/>
    <path class="st2" d="M1094.7,639.7v19.6h-34.8v95.1h-20.4v-95.1h-34.8v-19.6h90Z"/>
    <path class="st2" d="M1109.5,639.7h32.9c7.6,0,15.8,1,23.4,3.4s14.5,6.5,19.7,12.6c5.1,6.2,8.3,14.3,8.3,25.3s-2,14.5-5.5,19.8c-3.5,5.3-8.4,9.5-14.2,12.5,2.3,5.2,7,11.3,12.3,16.5,5.3,5.3,11.4,9.8,16.6,11.7v1l-9.1,13.6c-5.7,0-11.5-2.5-16.9-6.4-5.4-3.8-10.4-9-14.4-14.5-4-5.5-7.1-11.1-8.7-15.8-3.7.6-7.7.7-11.6.7h-12.5v34.3h-20.4v-114.7h0ZM1129.9,700.5h12.9c11.8,0,19.5-2,24.2-5.5s6.3-8.5,6.3-14.6-1.7-11.5-6.3-15.2c-4.7-3.8-12.4-5.9-24.2-5.9h-12.9v41.2Z"/>
    <path class="st2" d="M1229.4,639.7v64.6c0,13.3,2.7,21.4,7.3,26.1,4.6,4.7,11.5,6.2,19.6,6.2s15-1.5,19.6-6.2,7.3-12.8,7.3-26.1v-64.6h20.4v70.4c0,13.5-3.1,23.1-8,29.9-5,6.9-11.5,10.8-18.4,13.1-7,2.3-14,3-19.9,3h-1.9c-5.9,0-13-.6-19.8-3-7-2.3-13.5-6.3-18.4-13.1-5-6.9-8.1-16.5-8.1-29.9v-70.4h20.3Z"/>
    <path class="st2" d="M1400.4,754.4v-71.1l-18.5,34.8h-19.3l-18.5-34.8v71.1h-20.4v-114.7h20.4l28.2,53.2,28.2-53.2h20.4v114.7h-20.4Z"/>
  </g>
</svg>